<svg width="112" height="112" viewBox="0 0 112 112" fill="none" xmlns="http://www.w3.org/2000/svg">
<line x1="5.5" y1="-5.5" x2="38.7" y2="-5.5" transform="translate(39.8122 93.342) rotate(-60)" stroke="black" stroke-width="11" stroke-linecap="round" stroke-linejoin="round"/>
<path fill-rule="evenodd" clip-rule="evenodd" d="M0.0354462 0C0.012085 0.163303 0 0.330238 0 0.5V53.5C0 55.433 1.567 57 3.5 57C5.433 57 7 55.433 7 53.5V0.5C7 0.330238 6.98792 0.163303 6.96455 0H0.0354462Z" transform="translate(63.5179 34.2824) rotate(30)" fill="black"/>
<mask id="path-3-inside-1" fill="white">
<path fill-rule="evenodd" clip-rule="evenodd" d="M3.8743e-07 5C2.30055e-06 3.34314 1.34315 2 3 2L9 2L10.8462 2L33.5351 2C34.2267 0.804399 35.5194 9.97908e-07 37 5.66244e-07L41 3.30806e-06C41.5523 2.20877e-06 42 0.447716 42 1L42 15C42 15.5523 41.5523 16 41 16L37 16C35.5194 16 34.2268 15.1956 33.5351 14L11 14C9.89543 14 9 13.1046 9 12L9 7.45455L6.92775e-07 7.45455L3.8743e-07 5Z"/>
</mask>
<path fill-rule="evenodd" clip-rule="evenodd" d="M3.8743e-07 5C2.30055e-06 3.34314 1.34315 2 3 2L9 2L10.8462 2L33.5351 2C34.2267 0.804399 35.5194 9.97908e-07 37 5.66244e-07L41 3.30806e-06C41.5523 2.20877e-06 42 0.447716 42 1L42 15C42 15.5523 41.5523 16 41 16L37 16C35.5194 16 34.2268 15.1956 33.5351 14L11 14C9.89543 14 9 13.1046 9 12L9 7.45455L6.92775e-07 7.45455L3.8743e-07 5Z" transform="translate(54.0635 12.658) rotate(30)" fill="#606060"/>
<path d="M3 2L3 4H3V2ZM3.8743e-07 5L-2 5V5L3.8743e-07 5ZM9 2V4V2ZM10.8462 2V1.21375e-06V2ZM33.5351 2V4H34.6887L35.2663 3.00145L33.5351 2ZM37 5.66244e-07V-2V5.66244e-07ZM41 3.30806e-06V2H41L41 3.30806e-06ZM42 1L40 0.999986V1L42 1ZM42 15H40V15L42 15ZM41 16L41 18H41L41 16ZM37 16V14V16ZM33.5351 14L35.2663 12.9985L34.6887 12H33.5351V14ZM11 14L11 16H11V14ZM9 12H7H9ZM9 7.45455H11V5.45455L9 5.45455V7.45455ZM6.92775e-07 7.45455H-2L-2 9.45455H5.93434e-07L6.92775e-07 7.45455ZM3 1.07816e-06C0.238579 2.16745e-07 -2 2.23857 -2 5L2 5C2 4.44771 2.44772 4 3 4L3 1.07816e-06ZM9 1.37618e-06L3 1.07816e-06L3 4L9 4V1.37618e-06ZM10.8462 1.21375e-06L9 1.37618e-06V4H10.8462V1.21375e-06ZM33.5351 2.64736e-06L10.8462 1.21375e-06V4L33.5351 4V2.64736e-06ZM35.2663 3.00145C35.6152 2.39844 36.2622 2 37 2V-2C34.7766 -2 32.8383 -0.789638 31.8039 0.99855L35.2663 3.00145ZM37 2L41 2L41 -2L37 -2L37 2ZM41 2C40.4477 2 40 1.5523 40 0.999986L44 1.00002C44 -0.656868 42.6568 -2 41 -2L41 2ZM40 1V15H44V1L40 1ZM40 15C40 14.4477 40.4477 14 41 14L41 18C42.6568 18 44 16.6569 44 15L40 15ZM41 14L37 14V18L41 18L41 14ZM37 14C36.2622 14 35.6152 13.6016 35.2663 12.9985L31.8039 15.0015C32.8383 16.7896 34.7766 18 37 18V14ZM11 16H33.5351V12L11 12V16ZM7 12C7 14.2091 8.79086 16 11 16L11 12H11L7 12ZM7 7.45455L7 12H11L11 7.45455L7 7.45455ZM5.93434e-07 9.45455L9 9.45455V5.45455H7.92116e-07L5.93434e-07 9.45455ZM-2 5L-2 7.45455L2 7.45455L2 5L-2 5Z" transform="translate(54.0635 12.658) rotate(30)" fill="black" mask="url(#path-3-inside-1)"/>
<circle cx="55" cy="55" r="52.5" transform="translate(1 1)" stroke="black" stroke-width="5"/>
</svg>
